<svg xmlns="http://www.w3.org/2000/svg" version="1.1" xmlns:xlink="http://www.w3.org/1999/xlink" width="180" height="180" x="0" y="0" viewBox="0 0 512 512" style="enable-background:new 0 0 512 512" xml:space="preserve" class=""><g><path fill="#EAF6FF" d="m326.764 512 61.398-25.288v-69.263c0-39.478-27.726-73.527-66.385-81.526l-49.519-10.245H129.432l-49.519 10.245c-38.659 7.998-66.385 42.048-66.385 81.526v82.063c0 6.897 5.591 12.488 12.488 12.488h143.736l31.094-19.268L231.939 512z" opacity="1" data-original="#eaf6ff"></path><path fill="#D8ECFE" d="m326.764 512 61.398-25.288v-69.263c0-39.478-27.726-73.527-66.385-81.525l-38.046-7.872a44.604 44.604 0 0 0-1.716 12.24V496.39c0 5.488.998 10.747 2.815 15.61z" opacity="1" data-original="#d8ecfe"></path><path fill="#FE646F" d="m211.252 413.161 20.687-27.206-31.093-55.964-31.094 55.964 20.687 27.206 10.406 6.865z" opacity="1" data-original="#fe646f"></path><path fill="#FD8087" d="M211.252 413.161 231.939 512h-62.187l20.687-98.839z" opacity="1" data-original="#fd8087"></path><path fill="#F6A96C" d="m237.268 318.439-6.422 36.423h-60l-6.423-36.423v-66.602h72.845z" opacity="1" data-original="#f6a96c"></path><path fill="#FED2A4" d="M117.594 94.492v53.28l-14.065 28.769 14.065 33.671c0 41.006 29.655 75.062 68.683 81.955h7.537l32.288-7.601 12.576-6.007 5.343 2.848c24.027-14.602 40.077-41.025 40.077-71.196V94.492z" opacity="1" data-original="#fed2a4" class=""></path><path fill="#FFBD86" d="M254.959 94.492v115.719c0 41.006-29.655 75.062-68.683 81.955a83.66 83.66 0 0 0 14.569 1.297c45.979 0 83.252-37.273 83.252-83.252v-10.407l12.018-26.016-12.018-26.016v-53.28z" opacity="1" data-original="#ffbd86"></path><path fill="#918291" d="M200.846 0C143.372 0 96.781 46.591 96.781 104.065v54.114l20.813-10.406 5.356-26.781c2.37-11.848 16.173-17.306 26.005-10.284 31.041 22.172 72.74 22.172 103.782 0 6.781-4.843 15.449-3.749 20.955 1.283l12.007-4.432 9.01 33.787v11.732l10.203 5.101v-54.114C304.911 46.591 258.319 0 200.846 0z" opacity="1" data-original="#918291"></path><path fill="#7A6D79" d="M200.846 0c-5.306 0-10.518.4-15.61 1.166 50.068 7.532 88.455 50.731 88.455 102.899v7.925c2.477 2.264 4.315 5.324 5.05 9.001l5.356 26.781 20.813 10.407v-54.114C304.911 46.591 258.319 0 200.846 0z" opacity="1" data-original="#7a6d79"></path><path fill="#F6A96C" d="M284.098 147.772h18.732c8.046 0 14.569 6.523 14.569 14.569v12.488c0 13.794-11.182 24.976-24.976 24.976h-8.325z" opacity="1" data-original="#f6a96c"></path><path fill="#FED2A4" d="M482.862 512H326.764c-8.621 0-15.61-6.989-15.61-15.61V340.293c0-8.621 6.989-15.61 15.61-15.61h156.098c8.621 0 15.61 6.989 15.61 15.61V496.39c0 8.621-6.989 15.61-15.61 15.61z" opacity="1" data-original="#fed2a4" class=""></path><path fill="#FFBD86" d="M482.862 324.683h-29.138c8.621 0 15.61 6.989 15.61 15.61V496.39c0 8.621-6.989 15.61-15.61 15.61h29.138c8.621 0 15.61-6.989 15.61-15.61V340.293c0-8.622-6.989-15.61-15.61-15.61z" opacity="1" data-original="#ffbd86"></path><path fill="#D88A55" d="m420.235 381.151-12.113-7.571a6.247 6.247 0 0 0-6.619 0l-12.113 7.571c-4.159 2.599-9.553-.391-9.553-5.295v-51.173h49.951v51.173c.001 4.905-5.394 7.894-9.553 5.295z" opacity="1" data-original="#d88a55" class=""></path><path fill="#C4E2FF" d="m164.423 318.439-34.99 7.239 19.855 63.506c1.867 5.972 9.408 7.827 13.833 3.403l37.725-37.725z" opacity="1" data-original="#c4e2ff"></path><path fill="#C4E2FF" d="m237.268 318.439 34.99 7.239-19.855 63.506c-1.867 5.972-9.408 7.827-13.833 3.403l-37.725-37.725z" opacity="1" data-original="#c4e2ff"></path><path fill="#918291" d="M200.845 269.744h-97.821c-14.464 0-26.232-11.768-26.232-26.232v-57.867c0-4.143 3.358-7.5 7.5-7.5s7.5 3.357 7.5 7.5v57.867c0 6.193 5.039 11.232 11.232 11.232h97.821c4.142 0 7.5 3.357 7.5 7.5s-3.358 7.5-7.5 7.5z" opacity="1" data-original="#918291"></path><path fill="#C4E2FF" d="M86.374 439.979a7.5 7.5 0 0 0-7.5 7.5V512h15v-64.521a7.5 7.5 0 0 0-7.5-7.5z" opacity="1" data-original="#c4e2ff"></path><path fill="#918291" d="M371.512 452.898h-27.057c-4.143 0-7.5-3.357-7.5-7.5s3.357-7.5 7.5-7.5h27.057c4.143 0 7.5 3.357 7.5 7.5s-3.358 7.5-7.5 7.5zM371.512 486.199h-27.057c-4.143 0-7.5-3.357-7.5-7.5s3.357-7.5 7.5-7.5h27.057c4.143 0 7.5 3.357 7.5 7.5s-3.358 7.5-7.5 7.5z" opacity="1" data-original="#918291"></path><path fill="#60B7FF" d="M111.594 137.366H99.903c-20.116 0-36.423 16.307-36.423 36.423 0 20.116 16.307 36.423 36.423 36.423h17.691v-66.846a6 6 0 0 0-6-6z" opacity="1" data-original="#60b7ff"></path></g></svg>