<svg xmlns="http://www.w3.org/2000/svg" version="1.1" xmlns:xlink="http://www.w3.org/1999/xlink" width="180" height="180" x="0" y="0" viewBox="0 0 512 512" style="enable-background:new 0 0 512 512" xml:space="preserve"><g><path fill="#6ADDC7" d="M472.02 284.42a25.21 25.21 0 0 0-34.92-7.22l-2.11 1.38 27.69 42.15 2.11-1.38a25.2 25.2 0 0 0 7.23-34.93z" opacity="1" data-original="#6addc7"></path><path fill="#CAE6EE" d="M335.84 58h-270A29.548 29.548 0 0 0 36 87.63v361C36 465.19 49.27 479 65.84 479h270A30.466 30.466 0 0 0 366 448.63v-361C366 71.06 352.4 58 335.84 58zm-231.75 58.79a16.61 16.61 0 1 1 16.61-16.61 16.608 16.608 0 0 1-16.61 16.61zm62.52 0a16.61 16.61 0 1 1 16.61-16.61 16.608 16.608 0 0 1-16.61 16.61zm62.53 0a16.61 16.61 0 1 1 16.61-16.61 16.6 16.6 0 0 1-16.61 16.61zm62.52 0a16.61 16.61 0 1 1 16.61-16.61 16.608 16.608 0 0 1-16.61 16.61z" opacity="1" data-original="#cae6ee"></path><path fill="#81C83D" d="M108.2 162.9a34.725 34.725 0 1 1-34.72 34.73 34.729 34.729 0 0 1 34.72-34.73zM108.2 262.9a34.725 34.725 0 1 1-34.72 34.73 34.729 34.729 0 0 1 34.72-34.73zM108.2 362.9a34.725 34.725 0 1 1-34.72 34.73 34.729 34.729 0 0 1 34.72-34.73z" opacity="1" data-original="#81c83d"></path><path fill="#AAC8CE" d="M66 448.63v-361A29.548 29.548 0 0 1 95.84 58h-30A29.548 29.548 0 0 0 36 87.63v361C36 465.19 49.27 479 65.84 479h30C79.27 479 66 465.19 66 448.63z" opacity="1" data-original="#aac8ce"></path><g fill="#6D7486"><path d="M104.09 89.43a6 6 0 0 1-6-6V33.375a6 6 0 0 1 12 0V83.43a6 6 0 0 1-6 6z" fill="#6D7486" opacity="1" data-original="#6d7486"></path><path d="M104.09 89.43a6 6 0 0 1-6-6V33.375a6 6 0 0 1 12 0V83.43a6 6 0 0 1-6 6zM166.613 89.43a6 6 0 0 1-6-6V33.375a6 6 0 0 1 12 0V83.43a6 6 0 0 1-6 6zM229.138 89.43a6 6 0 0 1-6-6V33.375a6 6 0 0 1 12 0V83.43a6 6 0 0 1-6 6zM291.661 89.43a6 6 0 0 1-6-6V33.375a6 6 0 0 1 12 0V83.43a6 6 0 0 1-6 6z" fill="#6D7486" opacity="1" data-original="#6d7486"></path></g><path fill="#8FB1B5" d="M328.2 191.625h-150a6 6 0 0 1 0-12h150a6 6 0 0 1 0 12z" opacity="1" data-original="#8fb1b5"></path><path fill="#D8FF33" d="M104.189 212.025a5.981 5.981 0 0 1-4.242-1.757l-9.555-9.556a6 6 0 1 1 8.484-8.485l5.407 5.407 13.331-12.745a6 6 0 1 1 8.293 8.673l-17.571 16.8a5.982 5.982 0 0 1-4.147 1.663z" opacity="1" data-original="#d8ff33"></path><path fill="#8FB1B5" d="M328.2 291.625h-150a6 6 0 0 1 0-12h150a6 6 0 0 1 0 12z" opacity="1" data-original="#8fb1b5"></path><path fill="#D8FF33" d="M104.189 312.025a5.981 5.981 0 0 1-4.242-1.757l-9.555-9.556a6 6 0 1 1 8.484-8.485l5.407 5.407 13.331-12.745a6 6 0 1 1 8.293 8.673l-17.571 16.8a5.982 5.982 0 0 1-4.147 1.663z" opacity="1" data-original="#d8ff33"></path><path fill="#8FB1B5" d="M273.3 391.625h-95.1a6 6 0 0 1 0-12h95.1a6 6 0 0 1 0 12z" opacity="1" data-original="#8fb1b5"></path><path fill="#D8FF33" d="M104.189 412.025a5.981 5.981 0 0 1-4.242-1.757l-9.555-9.556a6 6 0 1 1 8.484-8.485l5.407 5.407 13.331-12.745a6 6 0 1 1 8.293 8.673l-17.571 16.8a5.982 5.982 0 0 1-4.147 1.663z" opacity="1" data-original="#d8ff33"></path><path fill="#8FB1B5" d="M258.2 211.625h-80a6 6 0 0 1 0-12h80a6 6 0 0 1 0 12zM258.2 311.625h-80a6 6 0 0 1 0-12h80a6 6 0 0 1 0 12zM258.2 411.625h-80a6 6 0 0 1 0-12h80a6 6 0 0 1 0 12z" opacity="1" data-original="#8fb1b5"></path><path fill="#F4F8FC" d="M59.3 112.392a6 6 0 0 1-6-6v-6.3a6 6 0 0 1 12 0v6.3a6 6 0 0 1-6 6zM59.3 189.392a6 6 0 0 1-6-6v-58a6 6 0 0 1 12 0v58a6 6 0 0 1-6 6z" opacity="1" data-original="#f4f8fc"></path><path fill="#E75163" d="M448.84 299.66 287.65 405.51l13.85 21.07 161.18-105.85z" opacity="1" data-original="#e75163"></path><path fill="#FB6771" d="m273.865 384.442 161.212-105.868 13.847 21.087-161.212 105.868z" opacity="1" data-original="#fb6771"></path><path fill="#C79A83" d="m273.8 384.43-.64 1.2-22.37 42.28 50.71-1.33z" opacity="1" data-original="#c79a83"></path></g></svg>