<svg xmlns="http://www.w3.org/2000/svg" version="1.1" xmlns:xlink="http://www.w3.org/1999/xlink" width="180" height="180" x="0" y="0" viewBox="0 0 512 512" style="enable-background:new 0 0 512 512" xml:space="preserve"><g><path fill="#F9F3F1" d="M0 349.138c0 17.242 13.977 31.22 31.22 31.22h449.56c17.242 0 31.22-13.977 31.22-31.22V103.545L256 75.447 0 103.545z" opacity="1" data-original="#f9f3f1"></path><path fill="#F3EAE6" d="M480.78 349.138c0 17.242-13.977 31.22-31.22 31.22h31.22c17.242 0 31.22-13.977 31.22-31.22V103.545l-31.22-16.167z" opacity="1" data-original="#f3eae6"></path><path fill="#A79BA7" d="M480.78 47.35H31.22C13.977 47.35 0 61.327 0 78.569v24.976h512V78.569c0-17.242-13.977-31.219-31.22-31.219z" opacity="1" data-original="#a79ba7"></path><path fill="#918291" d="M480.78 47.35h-31.22c17.242 0 31.22 13.977 31.22 31.22v24.976H512V78.569c0-17.242-13.977-31.219-31.22-31.219z" opacity="1" data-original="#918291"></path><path fill="#A79BA7" d="M247.675 185.756v-20.813c0-5.747 4.659-10.407 10.407-10.407h201.886c5.747 0 10.406 4.659 10.406 10.407v20.813c0 5.747-4.659 10.407-10.406 10.407H258.081c-5.747 0-10.406-4.66-10.406-10.407z" opacity="1" data-original="#a79ba7"></path><path fill="#918291" d="M459.967 154.537h-31.22c5.747 0 10.406 4.659 10.406 10.407v20.813c0 5.747-4.659 10.407-10.406 10.407h31.22c5.747 0 10.406-4.659 10.406-10.407v-20.813c.001-5.748-4.658-10.407-10.406-10.407z" opacity="1" data-original="#918291"></path><path fill="#8AC9FE" d="M200.562 283.956v34.058c0 6.27-5.083 11.353-11.353 11.353H52.979c-6.27 0-11.353-5.083-11.353-11.353v-34.058c0-25.079 20.331-45.41 45.41-45.41h68.115c25.08-.001 45.411 20.33 45.411 45.41z" opacity="1" data-original="#8ac9fe"></path><path fill="#60B7FF" d="M155.151 238.545h-27.246c25.08 0 45.41 20.331 45.41 45.41v34.058c0 6.27-5.083 11.353-11.353 11.353h27.246c6.27 0 11.353-5.083 11.353-11.353v-34.058c.001-25.079-20.33-45.41-45.41-45.41z" opacity="1" data-original="#60b7ff"></path><circle cx="121.098" cy="196.541" r="42.004" fill="#FED2A4" opacity="1" data-original="#fed2a4"></circle><circle cx="256" cy="380.358" r="84.293" fill="#6CF5C2" opacity="1" data-original="#6cf5c2"></circle><path fill="#00F2A6" d="M310.117 315.745a83.89 83.89 0 0 1 9.363 38.596c0 46.554-37.739 84.293-84.293 84.293-20.604 0-39.473-7.403-54.117-19.68 14.005 27.133 42.291 45.697 74.93 45.697 46.554 0 84.293-37.739 84.293-84.293 0-25.949-11.735-49.15-30.176-64.613z" opacity="1" data-original="#00f2a6"></path><path fill="#F9F3F1" d="m236.132 369.067 11.774 11.774 27.962-27.962c6.502-6.502 17.045-6.502 23.547 0 6.502 6.502 6.502 17.045 0 23.547l-39.736 39.736c-6.502 6.502-17.045 6.502-23.547 0l-23.547-23.547c-6.502-6.502-6.502-17.045 0-23.547 6.502-6.503 17.045-6.503 23.547-.001z" opacity="1" data-original="#f9f3f1"></path><path fill="#8AC9FE" d="M286.395 270.264h-31.22c-4.143 0-7.5-3.358-7.5-7.5s3.357-7.5 7.5-7.5h31.22a7.5 7.5 0 0 1 0 15zM462.874 270.264H319.695c-4.143 0-7.5-3.358-7.5-7.5s3.357-7.5 7.5-7.5h143.179c4.143 0 7.5 3.358 7.5 7.5s-3.357 7.5-7.5 7.5zM462.874 236.963H319.695c-4.143 0-7.5-3.358-7.5-7.5s3.357-7.5 7.5-7.5h143.179c4.143 0 7.5 3.358 7.5 7.5s-3.357 7.5-7.5 7.5zM286.395 236.963h-31.22c-4.143 0-7.5-3.358-7.5-7.5s3.357-7.5 7.5-7.5h31.22a7.5 7.5 0 0 1 0 15zM462.874 303.565H343.415c-4.143 0-7.5-3.358-7.5-7.5s3.357-7.5 7.5-7.5h119.459c4.143 0 7.5 3.358 7.5 7.5s-3.357 7.5-7.5 7.5z" opacity="1" data-original="#8ac9fe"></path></g></svg>